<svg xmlns="http://www.w3.org/2000/svg" width="45.813" height="52.357" viewBox="0 0 45.813 52.357">
  <path id="Icon_awesome-shopping-bag" data-name="Icon awesome-shopping-bag" d="M36,16.362V13.089a13.089,13.089,0,0,0-26.179,0v3.272H0V44.176a8.181,8.181,0,0,0,8.181,8.181H37.632a8.181,8.181,0,0,0,8.181-8.181V16.362ZM16.362,13.089a6.545,6.545,0,1,1,13.089,0v3.272H16.362ZM32.723,25.36a2.454,2.454,0,1,1,2.454-2.454A2.454,2.454,0,0,1,32.723,25.36Zm-19.634,0a2.454,2.454,0,1,1,2.454-2.454A2.454,2.454,0,0,1,13.089,25.36Z" fill="#fff"/>
</svg>
